<?xml version="1.0" encoding="utf-8" standalone="no"?>
<!DOCTYPE svg PUBLIC "-//W3C//DTD SVG 1.1//EN"
  "http://www.w3.org/Graphics/SVG/1.1/DTD/svg11.dtd">
<svg xmlns:xlink="http://www.w3.org/1999/xlink" width="929.99952pt" height="404.39952pt" viewBox="0 0 929.99952 404.39952" xmlns="http://www.w3.org/2000/svg" version="1.1">
 <metadata>
  <rdf:RDF xmlns:dc="http://purl.org/dc/elements/1.1/" xmlns:cc="http://creativecommons.org/ns#" xmlns:rdf="http://www.w3.org/1999/02/22-rdf-syntax-ns#">
   <cc:Work>
    <dc:type rdf:resource="http://purl.org/dc/dcmitype/StillImage"/>
    <dc:date>2026-09-27T17:33:58.601174</dc:date>
    <dc:format>image/svg+xml</dc:format>
    <dc:creator>
     <cc:Agent>
      <dc:title>Matplotlib v3.10.9, https://matplotlib.org/</dc:title>
     </cc:Agent>
    </dc:creator>
   </cc:Work>
  </rdf:RDF>
 </metadata>
 <defs>
  <style type="text/css">*{stroke-linejoin: round; stroke-linecap: butt}</style>
 </defs>
 <g id="figure_1">
  <g id="patch_1">
   <path d="M 0 404.39952 
L 929.99952 404.39952 
L 929.99952 0 
L 0 0 
z
" style="fill: #ffffff"/>
  </g>
  <g id="axes_1">
   <g id="patch_2">
    <path d="M 80.2 362.096239 
L 452.274965 362.096239 
L 452.274965 24.39125 
L 80.2 24.39125 
z
" style="fill: #ffffff"/>
   </g>
   <g id="patch_3">
    <path d="M 80.2 39.741477 
L 399.339364 39.741477 
L 399.339364 75.859657 
L 80.2 75.859657 
z
" clip-path="url(#p95c7ddf01a)" style="fill: #2876a8"/>
   </g>
   <g id="patch_4">
    <path d="M 80.2 84.889203 
L 369.000852 84.889203 
L 369.000852 121.007383 
L 80.2 121.007383 
z
" clip-path="url(#p95c7ddf01a)" style="fill: #95b8d0"/>
   </g>
   <g id="patch_5">
    <path d="M 80.2 130.036928 
L 347.247521 130.036928 
L 347.247521 166.155109 
L 80.2 166.155109 
z
" clip-path="url(#p95c7ddf01a)" style="fill: #7ca9c7"/>
   </g>
   <g id="patch_6">
    <path d="M 80.2 175.184654 
L 317.31072 175.184654 
L 317.31072 211.302835 
L 80.2 211.302835 
z
" clip-path="url(#p95c7ddf01a)" style="fill: #5c93b8"/>
   </g>
   <g id="patch_7">
    <path d="M 80.2 220.33238 
L 277.2346 220.33238 
L 277.2346 256.45056 
L 80.2 256.45056 
z
" clip-path="url(#p95c7ddf01a)" style="fill: #407ca5"/>
   </g>
   <g id="patch_8">
    <path d="M 80.2 265.480106 
L 98.227866 265.480106 
L 98.227866 301.598286 
L 80.2 301.598286 
z
" clip-path="url(#p95c7ddf01a)" style="fill: #d58e3d"/>
   </g>
   <g id="patch_9">
    <path d="M 80.2 310.627831 
L 80.2 310.627831 
L 80.2 346.746012 
L 80.2 346.746012 
z
" clip-path="url(#p95c7ddf01a)" style="fill: #4f9384"/>
   </g>
   <g id="matplotlib.axis_1">
    <g id="xtick_1">
     <g id="line2d_1">
      <defs>
       <path id="m44f92d30fe" d="M 0 0 
L 0 3.5 
" style="stroke: #000000; stroke-width: 0.8"/>
      </defs>
      <g>
       <use xlink:href="#m44f92d30fe" x="80.2" y="362.096239" style="stroke: #000000; stroke-width: 0.8"/>
      </g>
     </g>
     <g id="text_1">
      <text style="font-size: 11px; font-family: 'Microsoft YaHei', 'DejaVu Sans', sans-serif; text-anchor: middle" x="80.2" y="377.889364" transform="rotate(-0 80.2 377.889364)">0.0</text>
     </g>
    </g>
    <g id="xtick_2">
     <g id="line2d_2">
      <g>
       <use xlink:href="#m44f92d30fe" x="140.212091" y="362.096239" style="stroke: #000000; stroke-width: 0.8"/>
      </g>
     </g>
     <g id="text_2">
      <text style="font-size: 11px; font-family: 'Microsoft YaHei', 'DejaVu Sans', sans-serif; text-anchor: middle" x="140.212091" y="377.889364" transform="rotate(-0 140.212091 377.889364)">0.5</text>
     </g>
    </g>
    <g id="xtick_3">
     <g id="line2d_3">
      <g>
       <use xlink:href="#m44f92d30fe" x="200.224182" y="362.096239" style="stroke: #000000; stroke-width: 0.8"/>
      </g>
     </g>
     <g id="text_3">
      <text style="font-size: 11px; font-family: 'Microsoft YaHei', 'DejaVu Sans', sans-serif; text-anchor: middle" x="200.224182" y="377.889364" transform="rotate(-0 200.224182 377.889364)">1.0</text>
     </g>
    </g>
    <g id="xtick_4">
     <g id="line2d_4">
      <g>
       <use xlink:href="#m44f92d30fe" x="260.236273" y="362.096239" style="stroke: #000000; stroke-width: 0.8"/>
      </g>
     </g>
     <g id="text_4">
      <text style="font-size: 11px; font-family: 'Microsoft YaHei', 'DejaVu Sans', sans-serif; text-anchor: middle" x="260.236273" y="377.889364" transform="rotate(-0 260.236273 377.889364)">1.5</text>
     </g>
    </g>
    <g id="xtick_5">
     <g id="line2d_5">
      <g>
       <use xlink:href="#m44f92d30fe" x="320.248364" y="362.096239" style="stroke: #000000; stroke-width: 0.8"/>
      </g>
     </g>
     <g id="text_5">
      <text style="font-size: 11px; font-family: 'Microsoft YaHei', 'DejaVu Sans', sans-serif; text-anchor: middle" x="320.248364" y="377.889364" transform="rotate(-0 320.248364 377.889364)">2.0</text>
     </g>
    </g>
    <g id="xtick_6">
     <g id="line2d_6">
      <g>
       <use xlink:href="#m44f92d30fe" x="380.260456" y="362.096239" style="stroke: #000000; stroke-width: 0.8"/>
      </g>
     </g>
     <g id="text_6">
      <text style="font-size: 11px; font-family: 'Microsoft YaHei', 'DejaVu Sans', sans-serif; text-anchor: middle" x="380.260456" y="377.889364" transform="rotate(-0 380.260456 377.889364)">2.5</text>
     </g>
    </g>
    <g id="xtick_7">
     <g id="line2d_7">
      <g>
       <use xlink:href="#m44f92d30fe" x="440.272547" y="362.096239" style="stroke: #000000; stroke-width: 0.8"/>
      </g>
     </g>
     <g id="text_7">
      <text style="font-size: 11px; font-family: 'Microsoft YaHei', 'DejaVu Sans', sans-serif; text-anchor: middle" x="440.272547" y="377.889364" transform="rotate(-0 440.272547 377.889364)">3.0</text>
     </g>
    </g>
    <g id="text_8">
     <text style="font-size: 12px; font-family: 'Microsoft YaHei', 'DejaVu Sans', sans-serif; text-anchor: middle" x="266.237482" y="394.216395" transform="rotate(-0 266.237482 394.216395)">逐实例相对最优差距的均值 (%)</text>
    </g>
   </g>
   <g id="matplotlib.axis_2">
    <g id="ytick_1">
     <g id="line2d_8">
      <defs>
       <path id="m894666b038" d="M 0 0 
L -3.5 0 
" style="stroke: #000000; stroke-width: 0.8"/>
      </defs>
      <g>
       <use xlink:href="#m894666b038" x="80.2" y="57.800567" style="stroke: #000000; stroke-width: 0.8"/>
      </g>
     </g>
     <g id="text_9">
      <text style="font-size: 11px; font-family: 'Microsoft YaHei', 'DejaVu Sans', sans-serif; text-anchor: end" x="73.2" y="62.19713" transform="rotate(-0 73.2 62.19713)">PPO</text>
     </g>
    </g>
    <g id="ytick_2">
     <g id="line2d_9">
      <g>
       <use xlink:href="#m894666b038" x="80.2" y="102.948293" style="stroke: #000000; stroke-width: 0.8"/>
      </g>
     </g>
     <g id="text_10">
      <text style="font-size: 11px; font-family: 'Microsoft YaHei', 'DejaVu Sans', sans-serif; text-anchor: end" x="73.2" y="107.344855" transform="rotate(-0 73.2 107.344855)">PPO + 4</text>
     </g>
    </g>
    <g id="ytick_3">
     <g id="line2d_10">
      <g>
       <use xlink:href="#m894666b038" x="80.2" y="148.096019" style="stroke: #000000; stroke-width: 0.8"/>
      </g>
     </g>
     <g id="text_11">
      <text style="font-size: 11px; font-family: 'Microsoft YaHei', 'DejaVu Sans', sans-serif; text-anchor: end" x="73.2" y="152.492581" transform="rotate(-0 73.2 152.492581)">PPO + 8</text>
     </g>
    </g>
    <g id="ytick_4">
     <g id="line2d_11">
      <g>
       <use xlink:href="#m894666b038" x="80.2" y="193.243744" style="stroke: #000000; stroke-width: 0.8"/>
      </g>
     </g>
     <g id="text_12">
      <text style="font-size: 11px; font-family: 'Microsoft YaHei', 'DejaVu Sans', sans-serif; text-anchor: end" x="73.2" y="197.640307" transform="rotate(-0 73.2 197.640307)">PPO + 16</text>
     </g>
    </g>
    <g id="ytick_5">
     <g id="line2d_12">
      <g>
       <use xlink:href="#m894666b038" x="80.2" y="238.39147" style="stroke: #000000; stroke-width: 0.8"/>
      </g>
     </g>
     <g id="text_13">
      <text style="font-size: 11px; font-family: 'Microsoft YaHei', 'DejaVu Sans', sans-serif; text-anchor: end" x="73.2" y="242.788033" transform="rotate(-0 73.2 242.788033)">PPO + 32</text>
     </g>
    </g>
    <g id="ytick_6">
     <g id="line2d_13">
      <g>
       <use xlink:href="#m894666b038" x="80.2" y="283.539196" style="stroke: #000000; stroke-width: 0.8"/>
      </g>
     </g>
     <g id="text_14">
      <text style="font-size: 11px; font-family: 'Microsoft YaHei', 'DejaVu Sans', sans-serif; text-anchor: end" x="73.2" y="287.935758" transform="rotate(-0 73.2 287.935758)">单点局部搜索</text>
     </g>
    </g>
    <g id="ytick_7">
     <g id="line2d_14">
      <g>
       <use xlink:href="#m894666b038" x="80.2" y="328.686922" style="stroke: #000000; stroke-width: 0.8"/>
      </g>
     </g>
     <g id="text_15">
      <text style="font-size: 11px; font-family: 'Microsoft YaHei', 'DejaVu Sans', sans-serif; text-anchor: end" x="73.2" y="333.083484" transform="rotate(-0 73.2 333.083484)">Gurobi</text>
     </g>
    </g>
   </g>
   <g id="patch_10">
    <path d="M 80.2 362.096239 
L 80.2 24.39125 
" style="fill: none; stroke: #000000; stroke-width: 0.8; stroke-linejoin: miter; stroke-linecap: square"/>
   </g>
   <g id="patch_11">
    <path d="M 80.2 362.096239 
L 452.274965 362.096239 
" style="fill: none; stroke: #000000; stroke-width: 0.8; stroke-linejoin: miter; stroke-linecap: square"/>
   </g>
   <g id="text_16">
    <text style="font-size: 10px; font-family: 'Microsoft YaHei', 'DejaVu Sans', sans-serif; text-anchor: start" x="404.140331" y="60.554473" transform="rotate(-0 404.140331 60.554473)">2.659%</text>
   </g>
   <g id="text_17">
    <text style="font-size: 10px; font-family: 'Microsoft YaHei', 'DejaVu Sans', sans-serif; text-anchor: start" x="373.801819" y="105.702199" transform="rotate(-0 373.801819 105.702199)">2.406%</text>
   </g>
   <g id="text_18">
    <text style="font-size: 10px; font-family: 'Microsoft YaHei', 'DejaVu Sans', sans-serif; text-anchor: start" x="352.048489" y="150.849925" transform="rotate(-0 352.048489 150.849925)">2.225%</text>
   </g>
   <g id="text_19">
    <text style="font-size: 10px; font-family: 'Microsoft YaHei', 'DejaVu Sans', sans-serif; text-anchor: start" x="322.111687" y="195.997651" transform="rotate(-0 322.111687 195.997651)">1.976%</text>
   </g>
   <g id="text_20">
    <text style="font-size: 10px; font-family: 'Microsoft YaHei', 'DejaVu Sans', sans-serif; text-anchor: start" x="282.035567" y="241.145376" transform="rotate(-0 282.035567 241.145376)">1.642%</text>
   </g>
   <g id="text_21">
    <text style="font-size: 10px; font-family: 'Microsoft YaHei', 'DejaVu Sans', sans-serif; text-anchor: start" x="103.028834" y="286.293102" transform="rotate(-0 103.028834 286.293102)">0.150%</text>
   </g>
   <g id="text_22">
    <text style="font-size: 10px; font-family: 'Microsoft YaHei', 'DejaVu Sans', sans-serif; text-anchor: start" x="85.000967" y="331.440828" transform="rotate(-0 85.000967 331.440828)">0.000%</text>
   </g>
   <g id="text_23">
    <text style="font-size: 14px; font-family: 'Microsoft YaHei', 'DejaVu Sans', sans-serif; text-anchor: middle" x="266.237482" y="18.39125" transform="rotate(-0 266.237482 18.39125)">a  解质量相对精确最优的差距</text>
   </g>
  </g>
  <g id="axes_2">
   <g id="patch_12">
    <path d="M 513.517059 362.096239 
L 922.79952 362.096239 
L 922.79952 24.39125 
L 513.517059 24.39125 
z
" style="fill: #ffffff"/>
   </g>
   <g id="PathCollection_1">
    <defs>
     <path id="m906985fb40" d="M 0 4.031129 
C 1.069068 4.031129 2.094493 3.606384 2.850439 2.850439 
C 3.606384 2.094493 4.031129 1.069068 4.031129 0 
C 4.031129 -1.069068 3.606384 -2.094493 2.850439 -2.850439 
C 2.094493 -3.606384 1.069068 -4.031129 0 -4.031129 
C -1.069068 -4.031129 -2.094493 -3.606384 -2.850439 -2.850439 
C -3.606384 -2.094493 -4.031129 -1.069068 -4.031129 0 
C -4.031129 1.069068 -3.606384 2.094493 -2.850439 2.850439 
C -2.094493 3.606384 -1.069068 4.031129 0 4.031129 
z
" style="stroke: #2876a8"/>
    </defs>
    <g clip-path="url(#p8475fb9f7c)">
     <use xlink:href="#m906985fb40" x="541.880388" y="308.95967" style="fill: #2876a8; stroke: #2876a8"/>
    </g>
   </g>
   <g id="PathCollection_2">
    <defs>
     <path id="m71628793be" d="M 0 4.031129 
C 1.069068 4.031129 2.094493 3.606384 2.850439 2.850439 
C 3.606384 2.094493 4.031129 1.069068 4.031129 0 
C 4.031129 -1.069068 3.606384 -2.094493 2.850439 -2.850439 
C 2.094493 -3.606384 1.069068 -4.031129 0 -4.031129 
C -1.069068 -4.031129 -2.094493 -3.606384 -2.850439 -2.850439 
C -3.606384 -2.094493 -4.031129 -1.069068 -4.031129 0 
C -4.031129 1.069068 -3.606384 2.094493 -2.850439 2.850439 
C -2.094493 3.606384 -1.069068 4.031129 0 4.031129 
z
" style="stroke: #95b8d0"/>
    </defs>
    <g clip-path="url(#p8475fb9f7c)">
     <use xlink:href="#m71628793be" x="578.187716" y="286.415421" style="fill: #95b8d0; stroke: #95b8d0"/>
    </g>
   </g>
   <g id="PathCollection_3">
    <defs>
     <path id="m79d258aecb" d="M 0 4.031129 
C 1.069068 4.031129 2.094493 3.606384 2.850439 2.850439 
C 3.606384 2.094493 4.031129 1.069068 4.031129 0 
C 4.031129 -1.069068 3.606384 -2.094493 2.850439 -2.850439 
C 2.094493 -3.606384 1.069068 -4.031129 0 -4.031129 
C -1.069068 -4.031129 -2.094493 -3.606384 -2.850439 -2.850439 
C -3.606384 -2.094493 -4.031129 -1.069068 -4.031129 0 
C -4.031129 1.069068 -3.606384 2.094493 -2.850439 2.850439 
C -2.094493 3.606384 -1.069068 4.031129 0 4.031129 
z
" style="stroke: #7ca9c7"/>
    </defs>
    <g clip-path="url(#p8475fb9f7c)">
     <use xlink:href="#m79d258aecb" x="606.163837" y="270.226793" style="fill: #7ca9c7; stroke: #7ca9c7"/>
    </g>
   </g>
   <g id="PathCollection_4">
    <defs>
     <path id="m5bd573dc19" d="M 0 4.031129 
C 1.069068 4.031129 2.094493 3.606384 2.850439 2.850439 
C 3.606384 2.094493 4.031129 1.069068 4.031129 0 
C 4.031129 -1.069068 3.606384 -2.094493 2.850439 -2.850439 
C 2.094493 -3.606384 1.069068 -4.031129 0 -4.031129 
C -1.069068 -4.031129 -2.094493 -3.606384 -2.850439 -2.850439 
C -3.606384 -2.094493 -4.031129 -1.069068 -4.031129 0 
C -4.031129 1.069068 -3.606384 2.094493 -2.850439 2.850439 
C -2.094493 3.606384 -1.069068 4.031129 0 4.031129 
z
" style="stroke: #5c93b8"/>
    </defs>
    <g clip-path="url(#p8475fb9f7c)">
     <use xlink:href="#m5bd573dc19" x="643.140281" y="248.159502" style="fill: #5c93b8; stroke: #5c93b8"/>
    </g>
   </g>
   <g id="PathCollection_5">
    <defs>
     <path id="m975fb71526" d="M 0 4.031129 
C 1.069068 4.031129 2.094493 3.606384 2.850439 2.850439 
C 3.606384 2.094493 4.031129 1.069068 4.031129 0 
C 4.031129 -1.069068 3.606384 -2.094493 2.850439 -2.850439 
C 2.094493 -3.606384 1.069068 -4.031129 0 -4.031129 
C -1.069068 -4.031129 -2.094493 -3.606384 -2.850439 -2.850439 
C -3.606384 -2.094493 -4.031129 -1.069068 -4.031129 0 
C -4.031129 1.069068 -3.606384 2.094493 -2.850439 2.850439 
C -2.094493 3.606384 -1.069068 4.031129 0 4.031129 
z
" style="stroke: #407ca5"/>
    </defs>
    <g clip-path="url(#p8475fb9f7c)">
     <use xlink:href="#m975fb71526" x="692.513727" y="218.518654" style="fill: #407ca5; stroke: #407ca5"/>
    </g>
   </g>
   <g id="PathCollection_6">
    <defs>
     <path id="ma954b17ad9" d="M 0 4.031129 
C 1.069068 4.031129 2.094493 3.606384 2.850439 2.850439 
C 3.606384 2.094493 4.031129 1.069068 4.031129 0 
C 4.031129 -1.069068 3.606384 -2.094493 2.850439 -2.850439 
C 2.094493 -3.606384 1.069068 -4.031129 0 -4.031129 
C -1.069068 -4.031129 -2.094493 -3.606384 -2.850439 -2.850439 
C -3.606384 -2.094493 -4.031129 -1.069068 -4.031129 0 
C -4.031129 1.069068 -3.606384 2.094493 -2.850439 2.850439 
C -2.094493 3.606384 -1.069068 4.031129 0 4.031129 
z
" style="stroke: #d58e3d"/>
    </defs>
    <g clip-path="url(#p8475fb9f7c)">
     <use xlink:href="#ma954b17ad9" x="881.706256" y="84.589741" style="fill: #d58e3d; stroke: #d58e3d"/>
    </g>
   </g>
   <g id="PathCollection_7">
    <defs>
     <path id="m0202b4d0e7" d="M 0 5.700877 
L 5.700877 0 
L 0 -5.700877 
L -5.700877 0 
z
" style="stroke: #4f9384"/>
    </defs>
    <g clip-path="url(#p8475fb9f7c)">
     <use xlink:href="#m0202b4d0e7" x="603.173907" y="70.866713" style="fill: #4f9384; stroke: #4f9384"/>
    </g>
   </g>
   <g id="matplotlib.axis_3">
    <g id="xtick_8">
     <g id="line2d_15">
      <path d="M 532.011716 362.096239 
L 532.011716 24.39125 
" clip-path="url(#p8475fb9f7c)" style="fill: none; stroke: #b0b0b0; stroke-opacity: 0.15; stroke-width: 0.8; stroke-linecap: square"/>
     </g>
     <g id="line2d_16">
      <g>
       <use xlink:href="#m44f92d30fe" x="532.011716" y="362.096239" style="stroke: #000000; stroke-width: 0.8"/>
      </g>
     </g>
     <g id="text_24">
      <!-- $\mathdefault{10^{0}}$ -->
      <g transform="translate(523.101716 377.889364)">
       <text>
        <tspan x="0" y="-0.926562" style="font-size: 11px; font-family: 'Microsoft YaHei'">1</tspan>
        <tspan x="6.450684" y="-0.926562" style="font-size: 11px; font-family: 'Microsoft YaHei'">0</tspan>
        <tspan x="13.005273" y="-5.082812" style="font-size: 7.7px; font-family: 'Microsoft YaHei'">0</tspan>
       </text>
      </g>
     </g>
    </g>
    <g id="xtick_9">
     <g id="line2d_17">
      <path d="M 794.04594 362.096239 
L 794.04594 24.39125 
" clip-path="url(#p8475fb9f7c)" style="fill: none; stroke: #b0b0b0; stroke-opacity: 0.15; stroke-width: 0.8; stroke-linecap: square"/>
     </g>
     <g id="line2d_18">
      <g>
       <use xlink:href="#m44f92d30fe" x="794.04594" y="362.096239" style="stroke: #000000; stroke-width: 0.8"/>
      </g>
     </g>
     <g id="text_25">
      <!-- $\mathdefault{10^{1}}$ -->
      <g transform="translate(785.13594 377.889364)">
       <text>
        <tspan x="0" y="-0.89375" style="font-size: 11px; font-family: 'Microsoft YaHei'">1</tspan>
        <tspan x="6.450684" y="-0.89375" style="font-size: 11px; font-family: 'Microsoft YaHei'">0</tspan>
        <tspan x="13.005273" y="-5.05" style="font-size: 7.7px; font-family: 'Microsoft YaHei'">1</tspan>
       </text>
      </g>
     </g>
    </g>
    <g id="xtick_10">
     <g id="line2d_19">
      <defs>
       <path id="md3c0fa7b0a" d="M 0 0 
L 0 2 
" style="stroke: #000000; stroke-width: 0.6"/>
      </defs>
      <g>
       <use xlink:href="#md3c0fa7b0a" x="520.021687" y="362.096239" style="stroke: #000000; stroke-width: 0.6"/>
      </g>
     </g>
    </g>
    <g id="xtick_11">
     <g id="line2d_20">
      <g>
       <use xlink:href="#md3c0fa7b0a" x="610.891877" y="362.096239" style="stroke: #000000; stroke-width: 0.6"/>
      </g>
     </g>
    </g>
    <g id="xtick_12">
     <g id="line2d_21">
      <g>
       <use xlink:href="#md3c0fa7b0a" x="657.033813" y="362.096239" style="stroke: #000000; stroke-width: 0.6"/>
      </g>
     </g>
    </g>
    <g id="xtick_13">
     <g id="line2d_22">
      <g>
       <use xlink:href="#md3c0fa7b0a" x="689.772038" y="362.096239" style="stroke: #000000; stroke-width: 0.6"/>
      </g>
     </g>
    </g>
    <g id="xtick_14">
     <g id="line2d_23">
      <g>
       <use xlink:href="#md3c0fa7b0a" x="715.165778" y="362.096239" style="stroke: #000000; stroke-width: 0.6"/>
      </g>
     </g>
    </g>
    <g id="xtick_15">
     <g id="line2d_24">
      <g>
       <use xlink:href="#md3c0fa7b0a" x="735.913975" y="362.096239" style="stroke: #000000; stroke-width: 0.6"/>
      </g>
     </g>
    </g>
    <g id="xtick_16">
     <g id="line2d_25">
      <g>
       <use xlink:href="#md3c0fa7b0a" x="753.456325" y="362.096239" style="stroke: #000000; stroke-width: 0.6"/>
      </g>
     </g>
    </g>
    <g id="xtick_17">
     <g id="line2d_26">
      <g>
       <use xlink:href="#md3c0fa7b0a" x="768.6522" y="362.096239" style="stroke: #000000; stroke-width: 0.6"/>
      </g>
     </g>
    </g>
    <g id="xtick_18">
     <g id="line2d_27">
      <g>
       <use xlink:href="#md3c0fa7b0a" x="782.055911" y="362.096239" style="stroke: #000000; stroke-width: 0.6"/>
      </g>
     </g>
    </g>
    <g id="xtick_19">
     <g id="line2d_28">
      <g>
       <use xlink:href="#md3c0fa7b0a" x="872.926101" y="362.096239" style="stroke: #000000; stroke-width: 0.6"/>
      </g>
     </g>
    </g>
    <g id="xtick_20">
     <g id="line2d_29">
      <g>
       <use xlink:href="#md3c0fa7b0a" x="919.068038" y="362.096239" style="stroke: #000000; stroke-width: 0.6"/>
      </g>
     </g>
    </g>
    <g id="text_26">
     <text style="font-size: 12px; font-family: 'Microsoft YaHei', 'DejaVu Sans', sans-serif; text-anchor: middle" x="718.158289" y="394.216395" transform="rotate(-0 718.158289 394.216395)">修正口径平均求解耗时 (s，对数轴)</text>
    </g>
   </g>
   <g id="matplotlib.axis_4">
    <g id="ytick_8">
     <g id="line2d_30">
      <path d="M 513.517059 349.107585 
L 922.79952 349.107585 
" clip-path="url(#p8475fb9f7c)" style="fill: none; stroke: #b0b0b0; stroke-opacity: 0.15; stroke-width: 0.8; stroke-linecap: square"/>
     </g>
     <g id="line2d_31">
      <g>
       <use xlink:href="#m894666b038" x="513.517059" y="349.107585" style="stroke: #000000; stroke-width: 0.8"/>
      </g>
     </g>
     <g id="text_27">
      <text style="font-size: 11px; font-family: 'Microsoft YaHei', 'DejaVu Sans', sans-serif; text-anchor: end" x="506.517059" y="353.504148" transform="rotate(-0 506.517059 353.504148)">0.670</text>
     </g>
    </g>
    <g id="ytick_9">
     <g id="line2d_32">
      <path d="M 513.517059 284.164318 
L 922.79952 284.164318 
" clip-path="url(#p8475fb9f7c)" style="fill: none; stroke: #b0b0b0; stroke-opacity: 0.15; stroke-width: 0.8; stroke-linecap: square"/>
     </g>
     <g id="line2d_33">
      <g>
       <use xlink:href="#m894666b038" x="513.517059" y="284.164318" style="stroke: #000000; stroke-width: 0.8"/>
      </g>
     </g>
     <g id="text_28">
      <text style="font-size: 11px; font-family: 'Microsoft YaHei', 'DejaVu Sans', sans-serif; text-anchor: end" x="506.517059" y="288.560881" transform="rotate(-0 506.517059 288.560881)">0.675</text>
     </g>
    </g>
    <g id="ytick_10">
     <g id="line2d_34">
      <path d="M 513.517059 219.221051 
L 922.79952 219.221051 
" clip-path="url(#p8475fb9f7c)" style="fill: none; stroke: #b0b0b0; stroke-opacity: 0.15; stroke-width: 0.8; stroke-linecap: square"/>
     </g>
     <g id="line2d_35">
      <g>
       <use xlink:href="#m894666b038" x="513.517059" y="219.221051" style="stroke: #000000; stroke-width: 0.8"/>
      </g>
     </g>
     <g id="text_29">
      <text style="font-size: 11px; font-family: 'Microsoft YaHei', 'DejaVu Sans', sans-serif; text-anchor: end" x="506.517059" y="223.617614" transform="rotate(-0 506.517059 223.617614)">0.680</text>
     </g>
    </g>
    <g id="ytick_11">
     <g id="line2d_36">
      <path d="M 513.517059 154.277784 
L 922.79952 154.277784 
" clip-path="url(#p8475fb9f7c)" style="fill: none; stroke: #b0b0b0; stroke-opacity: 0.15; stroke-width: 0.8; stroke-linecap: square"/>
     </g>
     <g id="line2d_37">
      <g>
       <use xlink:href="#m894666b038" x="513.517059" y="154.277784" style="stroke: #000000; stroke-width: 0.8"/>
      </g>
     </g>
     <g id="text_30">
      <text style="font-size: 11px; font-family: 'Microsoft YaHei', 'DejaVu Sans', sans-serif; text-anchor: end" x="506.517059" y="158.674347" transform="rotate(-0 506.517059 158.674347)">0.685</text>
     </g>
    </g>
    <g id="ytick_12">
     <g id="line2d_38">
      <path d="M 513.517059 89.334517 
L 922.79952 89.334517 
" clip-path="url(#p8475fb9f7c)" style="fill: none; stroke: #b0b0b0; stroke-opacity: 0.15; stroke-width: 0.8; stroke-linecap: square"/>
     </g>
     <g id="line2d_39">
      <g>
       <use xlink:href="#m894666b038" x="513.517059" y="89.334517" style="stroke: #000000; stroke-width: 0.8"/>
      </g>
     </g>
     <g id="text_31">
      <text style="font-size: 11px; font-family: 'Microsoft YaHei', 'DejaVu Sans', sans-serif; text-anchor: end" x="506.517059" y="93.73108" transform="rotate(-0 506.517059 93.73108)">0.690</text>
     </g>
    </g>
    <g id="ytick_13">
     <g id="line2d_40">
      <path d="M 513.517059 24.39125 
L 922.79952 24.39125 
" clip-path="url(#p8475fb9f7c)" style="fill: none; stroke: #b0b0b0; stroke-opacity: 0.15; stroke-width: 0.8; stroke-linecap: square"/>
     </g>
     <g id="line2d_41">
      <g>
       <use xlink:href="#m894666b038" x="513.517059" y="24.39125" style="stroke: #000000; stroke-width: 0.8"/>
      </g>
     </g>
     <g id="text_32">
      <text style="font-size: 11px; font-family: 'Microsoft YaHei', 'DejaVu Sans', sans-serif; text-anchor: end" x="506.517059" y="28.787812" transform="rotate(-0 506.517059 28.787812)">0.695</text>
     </g>
    </g>
    <g id="text_33">
     <text style="font-size: 12px; font-family: 'Microsoft YaHei', 'DejaVu Sans', sans-serif; text-anchor: middle" x="471.083465" y="193.243744" transform="rotate(-90 471.083465 193.243744)">平均综合目标 J</text>
    </g>
   </g>
   <g id="patch_13">
    <path d="M 513.517059 362.096239 
L 513.517059 24.39125 
" style="fill: none; stroke: #000000; stroke-width: 0.8; stroke-linejoin: miter; stroke-linecap: square"/>
   </g>
   <g id="patch_14">
    <path d="M 513.517059 362.096239 
L 922.79952 362.096239 
" style="fill: none; stroke: #000000; stroke-width: 0.8; stroke-linejoin: miter; stroke-linecap: square"/>
   </g>
   <g id="text_34">
    <text style="font-size: 10px; font-family: 'Microsoft YaHei', 'DejaVu Sans', sans-serif; text-anchor: start" x="533.880388" y="326.95967" transform="rotate(-0 533.880388 326.95967)">PPO</text>
   </g>
   <g id="text_35">
    <text style="font-size: 10px; font-family: 'Microsoft YaHei', 'DejaVu Sans', sans-serif; text-anchor: start" x="570.187716" y="276.415421" transform="rotate(-0 570.187716 276.415421)">PPO + 4</text>
   </g>
   <g id="text_36">
    <text style="font-size: 10px; font-family: 'Microsoft YaHei', 'DejaVu Sans', sans-serif; text-anchor: start" x="598.163837" y="260.226793" transform="rotate(-0 598.163837 260.226793)">PPO + 8</text>
   </g>
   <g id="text_37">
    <text style="font-size: 10px; font-family: 'Microsoft YaHei', 'DejaVu Sans', sans-serif; text-anchor: start" x="635.140281" y="238.159502" transform="rotate(-0 635.140281 238.159502)">PPO + 16</text>
   </g>
   <g id="text_38">
    <text style="font-size: 10px; font-family: 'Microsoft YaHei', 'DejaVu Sans', sans-serif; text-anchor: start" x="684.513727" y="208.518654" transform="rotate(-0 684.513727 208.518654)">PPO + 32</text>
   </g>
   <g id="text_39">
    <text style="font-size: 10px; font-family: 'Microsoft YaHei', 'DejaVu Sans', sans-serif; text-anchor: start" x="776.706256" y="94.589741" transform="rotate(-0 776.706256 94.589741)">单点局部搜索</text>
   </g>
   <g id="text_40">
    <text style="font-size: 10px; font-family: 'Microsoft YaHei', 'DejaVu Sans', sans-serif; text-anchor: start" x="611.173907" y="70.866713" transform="rotate(-0 611.173907 70.866713)">Gurobi</text>
   </g>
   <g id="text_41">
    <text style="font-size: 14px; font-family: 'Microsoft YaHei', 'DejaVu Sans', sans-serif; text-anchor: middle" x="718.158289" y="18.39125" transform="rotate(-0 718.158289 18.39125)">b  同一批 45 个验证算例</text>
   </g>
  </g>
 </g>
 <defs>
  <clipPath id="p95c7ddf01a">
   <rect x="80.2" y="24.39125" width="372.074965" height="337.704989"/>
  </clipPath>
  <clipPath id="p8475fb9f7c">
   <rect x="513.517059" y="24.39125" width="409.282461" height="337.704989"/>
  </clipPath>
 </defs>
</svg>
